<svg width="808" height="211" viewBox="0 0 808 211" fill="none" xmlns="http://www.w3.org/2000/svg">
<rect x="59" y="93" width="749" height="83" fill="#A0DBE8"/>
<path d="M37.536 41.008C32.064 41.008 27.072 42.064 22.944 43.984V28.048H8.64V94H22.944V69.04C22.944 59.728 28.512 54.256 37.44 54.256C46.464 54.256 52.224 59.824 52.224 69.04V73.072H66.336L66.528 69.136C67.392 50.992 55.68 41.008 37.536 41.008ZM93.2542 28.912C100.166 28.24 101.894 24.496 101.894 20.944C101.894 16.24 98.0542 10.864 91.1422 10.864H90.7582C84.5182 10.864 78.1822 15.28 78.1822 22C78.1822 24.592 79.2382 27.856 81.9262 31.888H91.9102C89.5102 29.392 87.5902 25.456 87.5902 22.672C87.5902 20.944 88.8382 19.408 91.4302 19.408C92.6782 19.408 93.2542 20.272 93.2542 21.04C93.3502 22.192 92.1022 23.536 89.7982 23.536L93.2542 28.912ZM166.163 60.208V67.024C166.163 74.32 162.419 81.904 151.667 81.904C142.451 81.904 136.883 76.432 136.883 67.024V28.048H113.171V41.296H122.579V67.024C122.579 77.008 126.899 95.152 151.379 95.152C174.707 95.152 180.467 78.736 180.467 67.024V60.208H166.163ZM209.203 59.92C210.547 48.688 219.187 40.144 229.555 40.144C240.595 40.144 250.003 48.976 250.003 60.304C250.003 71.632 240.691 81.04 229.555 81.04C225.043 81.04 221.011 79.216 219.859 78.64L206.035 70.96L199.123 83.152L229.747 100.624L233.491 94.096C251.155 91.984 264.499 78.64 264.499 60.592C264.499 41.488 249.235 26.896 229.555 26.896C212.083 26.896 197.875 39.28 194.899 56.176L209.203 59.92ZM371.855 58.48V45.328H332.975V28.048H318.671V94H365.711V80.656H332.975V58.48H371.855ZM54.432 175.208V182.024C54.432 189.32 50.688 196.904 39.936 196.904C30.72 196.904 25.152 191.432 25.152 182.024V143.048H1.44V156.296H10.848V182.024C10.848 192.008 15.168 210.152 39.648 210.152C62.976 210.152 68.736 193.736 68.736 182.024V175.208H54.432ZM87.0075 209.288H101.311V170.216C101.311 160.904 106.879 155.336 115.807 155.336C124.832 155.336 130.592 161 130.592 170.216V209.288H144.896V170.216C144.896 152.84 133.856 142.088 115.904 142.088C97.9515 142.088 87.0075 152.84 87.0075 170.216V209.288ZM227.663 173.48V160.328H182.255V143.048H167.951V182.024C167.951 199.496 178.895 210.152 196.847 210.152C214.799 210.152 225.647 198.728 225.647 180.104H211.535C211.535 190.568 205.775 196.904 196.751 196.904C187.823 196.904 182.255 191.432 182.255 182.024V173.48H227.663ZM315.16 143.048H291.448V182.024C291.448 191.432 285.88 196.904 276.952 196.904C267.928 196.904 262.168 191.336 262.168 182.024V143.048H247.864V182.024C247.864 199.496 258.904 210.152 276.856 210.152C294.808 210.152 305.752 199.496 305.752 182.024V156.296H315.16V143.048ZM364.217 156.008C358.745 156.008 353.753 157.064 349.625 158.984V143.048H335.321V209H349.625V184.04C349.625 174.728 355.193 169.256 364.121 169.256C373.145 169.256 378.905 174.824 378.905 184.04V188.072H393.017L393.209 184.136C394.073 165.992 382.361 156.008 364.217 156.008ZM461.12 175.208V182.024C461.12 189.32 457.375 196.904 446.624 196.904C437.408 196.904 431.84 191.432 431.84 182.024V143.048H408.128V156.296H417.536V182.024C417.536 192.008 421.856 210.152 446.336 210.152C469.664 210.152 475.424 193.736 475.424 182.024V175.208H461.12Z" fill="black"/>
</svg>
