<svg width="457" height="704" viewBox="0 0 457 704" fill="none" xmlns="http://www.w3.org/2000/svg">
<path d="M224.692 184.692C175.092 184.692 132.025 226.692 116.692 247.692C126.359 264.192 161.492 297.092 224.692 296.692C287.892 296.292 328.692 263.859 341.192 247.692C323.025 226.692 274.292 184.692 224.692 184.692Z" stroke="black" stroke-width="10"/>
<circle cx="228.692" cy="240.692" r="44" fill="#A0DBE8" stroke="black" stroke-width="10"/>
<circle cx="228.692" cy="240.692" r="14" fill="black"/>
<circle cx="237.692" cy="230.692" r="4" fill="white"/>
<circle cx="220.692" cy="251.692" r="3" fill="white"/>
<circle cx="228.192" cy="241.192" r="149.5" fill="#C4C4C4" fill-opacity="0.7" stroke="black" stroke-width="10"/>
<circle cx="228.192" cy="241.192" r="149.5" fill="#E9BD8A" fill-opacity="0.7" stroke="black" stroke-width="10"/>
<circle cx="279.192" cy="190.192" r="27.5" fill="white" fill-opacity="0.5"/>
<circle cx="165.192" cy="290.192" r="17.5" fill="white" fill-opacity="0.5"/>
<line x1="377.692" y1="233.692" x2="377.692" y2="703.692" stroke="black" stroke-width="10"/>
<path d="M402.587 248.241C403.999 207.553 391.139 167.653 366.234 135.446C341.329 103.24 305.947 80.7554 266.213 71.8848C226.479 63.0143 184.893 68.3162 148.656 86.8728C112.418 105.429 83.8099 136.072 67.7827 173.497" stroke="black" stroke-width="10"/>
<path d="M91.3169 351.368C115.304 381.837 148.756 403.448 186.393 412.789C224.029 422.131 263.704 418.669 299.154 402.952" stroke="black" stroke-width="10"/>
</svg>
