<svg width="35" height="35" viewBox="0 0 35 35" fill="none" xmlns="http://www.w3.org/2000/svg">
<path d="M14.9916 33H16.4916V31.5V21.8106V20.3106H14.9916H12.4135V18.75H14.9916H16.4916V17.25V13.774C16.4916 12.1037 16.9906 10.9894 17.6997 10.2918C18.4136 9.58949 19.5165 9.13634 21.0551 9.13634C21.778 9.13634 22.5311 9.19408 23.149 9.25958V10.3248H22.6248C21.3102 10.3248 20.1996 10.7378 19.4426 11.598C18.7177 12.4218 18.5084 13.441 18.5084 14.2887V17.25V18.75H20.0084H22.7083L22.4646 20.3106H20.0084H18.5084V21.8106V31.5V33H20.0084H28.8929C30.1064 33 31.2754 32.5265 32.1413 31.6755C33.0082 30.8236 33.5 29.6626 33.5 28.4464V6.05357C33.5 4.83739 33.0082 3.6764 32.1413 2.82453L31.0899 3.89437L32.1413 2.82453C31.2754 1.97353 30.1064 1.5 28.8929 1.5H6.10714C4.89359 1.5 3.7246 1.97353 2.85866 2.82453C1.99185 3.6764 1.5 4.83739 1.5 6.05357V28.4464C1.5 29.6626 1.99185 30.8236 2.85866 31.6755C3.7246 32.5265 4.89359 33 6.10714 33H14.9916Z" stroke="black" stroke-opacity="0.8" stroke-width="3"/>
</svg>
