<svg width="37" height="37" viewBox="0 0 37 37" fill="none" xmlns="http://www.w3.org/2000/svg">
<path d="M18.5041 8.98036C13.2544 8.98036 9.01991 13.2001 9.01991 18.4316C9.01991 23.6632 13.2544 27.8829 18.5041 27.8829C23.7539 27.8829 27.9883 23.6632 27.9883 18.4316C27.9883 13.2001 23.7539 8.98036 18.5041 8.98036ZM18.5041 24.5762C15.1116 24.5762 12.3381 21.8206 12.3381 18.4316C12.3381 15.0427 15.1033 12.2871 18.5041 12.2871C21.9049 12.2871 24.6701 15.0427 24.6701 18.4316C24.6701 21.8206 21.8967 24.5762 18.5041 24.5762ZM30.5885 8.59376C30.5885 9.81938 29.5979 10.7982 28.3763 10.7982C27.1464 10.7982 26.1641 9.81115 26.1641 8.59376C26.1641 7.37636 27.1547 6.38928 28.3763 6.38928C29.5979 6.38928 30.5885 7.37636 30.5885 8.59376ZM36.87 10.8311C36.7297 7.87812 36.0528 5.26236 33.8819 3.10724C31.7193 0.95212 29.0944 0.277616 26.1311 0.129554C23.077 -0.0431847 13.923 -0.0431847 10.8689 0.129554C7.91383 0.26939 5.28896 0.943894 3.11807 3.09902C0.947184 5.25414 0.278583 7.8699 0.130006 10.8229C-0.0433352 13.8664 -0.0433352 22.9887 0.130006 26.0322C0.270329 28.9852 0.947184 31.6009 3.11807 33.756C5.28896 35.9112 7.90558 36.5857 10.8689 36.7337C13.923 36.9065 23.077 36.9065 26.1311 36.7337C29.0944 36.5939 31.7193 35.9194 33.8819 33.756C36.0446 31.6009 36.7214 28.9852 36.87 26.0322C37.0433 22.9887 37.0433 13.8746 36.87 10.8311ZM32.9244 29.2977C32.2806 30.91 31.0342 32.152 29.4081 32.8019C26.9731 33.7643 21.195 33.5422 18.5041 33.5422C15.8132 33.5422 10.0269 33.756 7.60017 32.8019C5.98232 32.1603 4.73592 30.9182 4.08383 29.2977C3.11807 26.8712 3.34094 21.1132 3.34094 18.4316C3.34094 15.7501 3.12632 9.98389 4.08383 7.56555C4.72766 5.95332 5.97407 4.71125 7.60017 4.06142C10.0352 3.09902 15.8132 3.32111 18.5041 3.32111C21.195 3.32111 26.9813 3.10724 29.4081 4.06142C31.0259 4.70302 32.2723 5.94509 32.9244 7.56555C33.8902 9.99212 33.6673 15.7501 33.6673 18.4316C33.6673 21.1132 33.8902 26.8794 32.9244 29.2977Z" fill="black" fill-opacity="0.8"/>
</svg>
