<svg width="99" height="76" viewBox="0 0 99 76" fill="none" xmlns="http://www.w3.org/2000/svg">
<path d="M47.9071 0.909459C45.5598 3.06639 41.7124 7.99227 39.2595 11.9672C38.0753 13.87 35.8765 18.162 35.0094 20.2551C34.819 20.7206 34.7981 20.7206 33.4874 19.8744C28.5396 16.7237 21.4996 13.9119 14.8185 12.4108C11.8163 11.734 11.626 11.734 10.9282 12.3261C10.2724 12.9181 9.9345 14.6724 9.55375 19.7896C8.98262 27.2103 9.91357 35.1394 12.0904 41.355C12.4503 42.3906 12.8091 43.4063 12.8729 43.5957C12.9367 43.8498 12.4283 44.1239 10.3571 44.8217C7.22836 45.9021 1.9636 48.397 1.2021 49.1575C0.906068 49.4535 0.673828 49.919 0.673828 50.215C0.673828 51.3573 3.29524 57.0227 5.32559 60.3C7.79949 64.2959 11.2033 68.1443 14.3112 70.4697C16.4043 72.0345 20.0833 73.8526 22.3459 74.4446C29.3868 76.2846 38.3086 74.8882 47.2942 70.5125L49.5986 69.3922L50.6771 70.0052C52.2629 70.8933 55.8571 72.3944 58.6061 73.2825C65.2454 75.4175 71.4401 75.8191 76.6829 74.4456C78.9455 73.8536 82.6235 72.0355 84.7176 70.4707C87.8254 68.1453 91.2293 64.2969 93.7032 60.301C95.7325 57.0227 98.354 51.3563 98.354 50.215C98.354 49.919 98.1217 49.4535 97.8257 49.1575C97.0642 48.397 91.7994 45.9011 88.6707 44.8237C86.5984 44.1259 86.0911 43.8508 86.1549 43.5977C86.2187 43.4073 86.5566 42.4135 86.9164 41.3989C89.0723 35.2042 90.0033 27.7197 89.496 20.3827C89.3694 18.3105 89.1152 15.7738 88.9677 14.7372C88.7354 13.1095 88.6089 12.7706 88.1005 12.3271C87.3609 11.6931 86.7051 11.7559 82.1809 12.9191C75.8367 14.5468 69.2194 17.3586 64.6732 20.4036L64.0812 20.8053L63.7433 19.8754C62.9399 17.7613 60.3394 12.9191 58.6051 10.3186C56.512 7.18989 53.8686 3.84883 51.6698 1.54438C49.8518 -0.358387 49.3654 -0.422181 47.9071 0.909459ZM51.2472 6.08949C57.6323 13.6378 61.5644 21.3336 62.9599 29.0932C63.4672 31.905 63.4672 37.0222 62.9808 39.7702C61.9023 45.7745 59.0267 52.3291 54.8833 58.1859C53.3184 60.4056 49.7451 64.7195 49.492 64.7195C49.4072 64.7195 48.6677 63.9799 47.8852 63.0709C42.0503 56.4526 37.8421 48.5036 36.1507 40.9135C35.749 39.1373 35.6852 38.1645 35.6642 34.5922C35.6642 30.9561 35.728 30.046 36.1507 28.0805C37.5042 21.801 40.612 15.2674 45.1791 9.24217C47.0191 6.7892 49.2179 4.25251 49.5129 4.25251C49.5986 4.25052 50.381 5.07482 51.2472 6.08949ZM18.2014 16.7456C22.7475 18.0772 27.8 20.3189 31.7959 22.7928C33.4236 23.7865 33.6778 24.0188 33.5721 24.4205C33.5083 24.6527 33.1913 26.0481 32.8744 27.5074C32.3461 29.8965 32.3033 30.5733 32.3033 34.4845C32.3033 38.3748 32.3451 39.0934 32.8534 41.4617C34.3545 48.4388 38.0753 56.1137 43.1079 62.5416C43.8474 63.5144 44.3339 64.2969 44.2073 64.2969C43.5943 64.2969 38.1391 62.3094 35.6234 61.1681C30.3795 58.779 26.574 56.1994 22.8741 52.4786C17.5456 47.1291 14.5863 40.8497 13.2536 32.0545C12.7882 29.0094 12.6197 22.8785 12.9157 19.369C13.2756 15.1618 13.127 15.4369 14.6919 15.8166C15.4106 15.9632 16.9964 16.3868 18.2014 16.7456ZM86.0911 19.368C86.8526 28.3536 85.4352 37.3392 82.2427 43.9575C77.9298 52.8793 69.5782 59.4547 57.4001 63.5134C55.9628 63.9789 54.7567 64.3168 54.673 64.253C54.6092 64.1683 55.0747 63.4706 55.7086 62.6672C63.0665 53.4703 67.4003 41.7358 66.7455 32.792C66.576 30.4667 65.9421 26.5973 65.4975 25.1172L65.2015 24.1025L66.9568 22.9403C71.3753 20.0647 78.0146 17.2948 83.8714 15.9213C85.4363 15.5405 85.5628 15.5405 85.6894 15.8575C85.7741 16.0479 85.9426 17.6337 86.0911 19.368ZM15.7485 49.0099C18.4755 53.3228 22.0279 56.8543 26.8272 60.0677C31.3942 63.1118 36.8484 65.6285 42.4301 67.2562C43.7199 67.6369 44.7774 67.9748 44.8193 67.9958C44.9249 68.0805 40.4855 69.7929 38.7302 70.3421C35.1778 71.4624 32.9372 71.8013 29.1097 71.8013C26.0228 71.8013 25.2404 71.7166 23.6127 71.294C17.7987 69.7929 12.9775 65.9236 8.64373 59.3272C7.16358 57.0646 4.39365 51.5038 4.54216 51.124C4.75347 50.5738 12.9566 47.2128 14.1198 47.1909C14.4587 47.17 14.8604 47.6354 15.7485 49.0099ZM87.2324 47.8896C89.9594 48.7986 94.3361 50.7443 94.4846 51.125C94.6331 51.5058 91.8632 57.0666 90.3831 59.3282C86.0482 65.9245 81.228 69.7729 75.4141 71.295C73.7645 71.7395 73.0249 71.8023 69.9171 71.8023C66.0906 71.7814 63.8071 71.4425 60.2966 70.3431C58.5413 69.7939 54.1019 68.0805 54.2075 67.9968C54.2494 67.9758 55.3279 67.6369 56.5967 67.2572C68.4997 63.7686 78.0773 57.235 83.2793 49.0109C83.9352 47.9963 84.59 47.171 84.7804 47.171C84.9488 47.17 86.0482 47.4879 87.2324 47.8896Z" fill="black"/>
<rect x="0.693848" y="27.2041" width="98.2858" height="31.5919" fill="white"/>
<rect x="18.7734" y="32.6777" width="4.97285" height="21.2175" rx="2.48642" fill="black"/>
<rect x="28.3877" y="32.6777" width="4.97285" height="21.2175" rx="2.48642" fill="black"/>
<rect x="33.3608" y="48.9238" width="4.97285" height="14.587" rx="2.48642" transform="rotate(90 33.3608 48.9238)" fill="black"/>
<rect x="33.3608" y="32.6777" width="4.97285" height="14.587" rx="2.48642" transform="rotate(90 33.3608 32.6777)" fill="black"/>
<rect x="51.2617" y="32.6797" width="4.97285" height="14.587" rx="2.48642" transform="rotate(90 51.2617 32.6797)" fill="black"/>
<rect x="51.2617" y="40.6367" width="4.97285" height="14.587" rx="2.48642" transform="rotate(90 51.2617 40.6367)" fill="black"/>
<rect x="51.2617" y="48.9258" width="4.97285" height="14.587" rx="2.48642" transform="rotate(90 51.2617 48.9258)" fill="black"/>
<rect x="41.3154" y="33.0117" width="4.97285" height="20.886" rx="2.48642" fill="black"/>
<rect x="76.127" y="33.0088" width="4.97285" height="20.886" rx="2.48642" fill="black"/>
<rect x="99" y="32.6797" width="4.97285" height="14.587" rx="2.48642" transform="rotate(90 99 32.6797)" fill="black"/>
<rect x="99" y="40.6367" width="4.97285" height="14.587" rx="2.48642" transform="rotate(90 99 40.6367)" fill="black"/>
<rect x="99" y="48.9258" width="4.97285" height="14.587" rx="2.48642" transform="rotate(90 99 48.9258)" fill="black"/>
<rect x="89.0542" y="33.0117" width="4.97285" height="20.886" rx="2.48642" fill="black"/>
<rect x="66.8164" y="40.7373" width="4.97285" height="12.8048" rx="2.48642" transform="rotate(135 66.8164 40.7373)" fill="black"/>
<rect x="68.9355" y="31.6826" width="4.97285" height="12.8048" rx="2.48642" transform="rotate(45 68.9355 31.6826)" fill="black"/>
<rect x="55.2402" y="32.6797" width="4.97285" height="21.2175" rx="2.48642" fill="black"/>
<rect x="66.5122" y="32.6797" width="4.97285" height="21.2175" rx="2.48642" fill="black"/>
<rect x="0.871582" y="32.6787" width="4.97285" height="21.2175" rx="2.48642" fill="black"/>
<rect x="10.4844" y="32.6787" width="4.97285" height="21.2175" rx="2.48642" fill="black"/>
<rect y="34.1406" width="4.97285" height="23.8924" rx="2.48642" transform="rotate(-30 0 34.1406)" fill="black"/>
</svg>
