<?xml version="1.0" encoding="utf-8"?>
<!-- Svg Vector Icons : http://www.onlinewebfonts.com/icon -->
<!DOCTYPE svg PUBLIC "-//W3C//DTD SVG 1.1//EN" "http://www.w3.org/Graphics/SVG/1.1/DTD/svg11.dtd">
<svg version="1.1" xmlns="http://www.w3.org/2000/svg" xmlns:xlink="http://www.w3.org/1999/xlink" x="0px" y="0px" viewBox="0 0 1000 1000" enable-background="new 0 0 1000 1000" xml:space="preserve">
<metadata> Svg Vector Icons : http://www.onlinewebfonts.com/icon </metadata>
<g><g transform="translate(0.000000,511.000000) scale(0.100000,-0.100000)"><path d="M4838.8,3793.3c-235.5-216.4-621.5-710.6-867.6-1109.4c-118.8-190.9-339.4-621.5-426.4-831.5c-19.1-46.7-21.2-46.7-152.7,38.2c-496.4,316.1-1202.7,598.2-1873,748.8c-301.2,67.9-320.3,67.9-390.3,8.5c-65.8-59.4-99.7-235.4-137.9-748.8c-57.3-744.5,36.1-1540,254.5-2163.6c36.1-103.9,72.1-205.8,78.5-224.8c6.4-25.5-44.6-53-252.4-123C757.6-720.7,229.4-971,153-1047.3c-29.7-29.7-53-76.4-53-106.1c0-114.6,263-683,466.7-1011.8c248.2-400.9,589.7-787,901.5-1020.3c210-157,579.1-339.4,806.1-398.8c706.4-184.6,1601.5-44.5,2503,394.5l231.2,112.4l108.2-61.5c159.1-89.1,519.7-239.7,795.5-328.8c666.1-214.2,1287.6-254.5,1813.6-116.7c227,59.4,596,241.8,806.1,398.8c311.8,233.3,653.3,619.4,901.5,1020.3C9637-1836.4,9900-1267.9,9900-1153.4c0,29.7-23.3,76.4-53,106.1c-76.4,76.3-604.6,326.7-918.5,434.8c-207.9,70-258.8,97.6-252.4,123c6.4,19.1,40.3,118.8,76.4,220.6c216.3,621.5,309.7,1372.4,258.8,2108.5c-12.7,207.9-38.2,462.4-53,566.4c-23.3,163.3-36,197.3-87,241.8c-74.2,63.6-140,57.3-593.9-59.4C7640.9,2425.1,6977,2143,6520.9,1837.5l-59.4-40.3l-33.9,93.3c-80.6,212.1-341.5,697.9-515.5,958.8c-210,313.9-475.2,649.1-695.8,880.3C5033.9,3920.5,4985.1,3926.9,4838.8,3793.3z M5173.9,3273.6c640.6-757.3,1035.1-1529.4,1175.1-2307.9c50.9-282.1,50.9-795.5,2.1-1071.2c-108.2-602.4-396.7-1260-812.4-1847.6c-157-222.7-515.5-655.5-540.9-655.5c-8.5,0-82.7,74.2-161.2,165.4c-585.4,664-1007.6,1461.5-1177.3,2223c-40.3,178.2-46.7,275.8-48.8,634.2c0,364.8,6.4,456.1,48.8,653.3c135.8,630,447.6,1285.5,905.8,1890c184.6,246.1,405.2,500.6,434.8,500.6C5008.5,3458.1,5087,3375.4,5173.9,3273.6z M1858.5,2204.5c456.1-133.6,963-358.5,1363.9-606.7c163.3-99.7,188.8-123,178.2-163.3c-6.4-23.3-38.2-163.3-70-309.7c-53-239.7-57.3-307.6-57.3-700c0-390.3,4.2-462.4,55.2-700c150.6-700,523.9-1470,1028.8-2114.9c74.2-97.6,123-176.1,110.3-176.1c-61.5,0-608.8,199.4-861.2,313.9c-526.1,239.7-907.9,498.5-1279.1,871.8c-534.6,536.7-831.5,1166.7-965.2,2049.1c-46.7,305.5-63.6,920.6-33.9,1272.7c36.1,422.1,21.2,394.5,178.2,356.4C1578.5,2283,1737.6,2240.5,1858.5,2204.5z M8669.7,1941.4c76.4-901.5-65.8-1803-386.1-2467C7850.9-1420.7,7013-2080.4,5791.2-2487.6c-144.2-46.7-265.2-80.6-273.6-74.2c-6.4,8.5,40.3,78.5,103.9,159.1c738.2,922.7,1173,2100,1107.3,2997.3c-17,233.3-80.6,621.5-125.2,770l-29.7,101.8L6750,1583c443.3,288.5,1109.4,566.4,1697,704.2c157,38.2,169.7,38.2,182.4,6.4C8637.9,2274.5,8654.8,2115.4,8669.7,1941.4z M1612.4-1032.5c273.6-432.7,630-787,1111.5-1109.4c458.2-305.4,1005.4-557.9,1565.4-721.2c129.4-38.2,235.5-72.1,239.7-74.2c10.6-8.5-434.8-180.3-610.9-235.4c-356.4-112.4-581.2-146.4-965.2-146.4c-309.7,0-388.2,8.5-551.5,50.9c-583.3,150.6-1067,538.8-1501.8,1200.6c-148.5,227-426.4,784.9-411.5,823c21.2,55.2,844.2,392.4,960.9,394.6C1483-847.9,1523.3-894.6,1612.4-1032.5z M8784.2-920.1c273.6-91.2,712.7-286.4,727.6-324.6c14.9-38.2-263-596.1-411.5-823c-434.9-661.8-918.5-1047.9-1501.8-1200.6c-165.5-44.6-239.7-50.9-551.5-50.9c-383.9,2.1-613,36.1-965.2,146.4c-176.1,55.1-621.5,227-610.9,235.4c4.2,2.1,112.4,36.1,239.7,74.2c1194.2,350,2155.1,1005.5,2677,1830.6c65.8,101.8,131.5,184.6,150.6,184.6C8555.1-847.9,8665.4-879.8,8784.2-920.1z"/></g></g>
</svg>