<svg width="662" height="109" viewBox="0 0 662 109" fill="none" xmlns="http://www.w3.org/2000/svg">
<path d="M104.024 5.07199H106.524V2.57199H104.024V5.07199ZM68.456 5.07199V2.57199H65.956V5.07199H68.456ZM24.536 5.07199H27.036V2.57199H24.536V5.07199ZM3.08 5.07199V2.57199H0.58V5.07199H3.08ZM89.912 24.944V22.444H87.412V24.944H89.912ZM104.024 24.944V27.444H106.524V24.944H104.024ZM104.024 2.57199H68.456V7.57199H104.024V2.57199ZM65.956 5.07199V63.536H70.956V5.07199H65.956ZM65.956 63.536C65.956 70.0994 64.0228 74.9899 60.8257 78.2329C57.6318 81.4726 52.8931 83.356 46.712 83.356V88.356C53.9229 88.356 60.0562 86.1354 64.3863 81.7431C68.7132 77.3541 70.956 71.0846 70.956 63.536H65.956ZM46.712 83.356C40.4616 83.356 35.6024 81.4375 32.3116 78.1621C29.0235 74.8893 27.036 69.9979 27.036 63.536H22.036C22.036 71.0421 24.3685 77.3107 28.7844 81.7059C33.1976 86.0985 39.4264 88.356 46.712 88.356V83.356ZM27.036 63.536V5.07199H22.036V63.536H27.036ZM24.536 2.57199H3.08V7.57199H24.536V2.57199ZM0.58 5.07199V63.536H5.58V5.07199H0.58ZM0.58 63.536C0.58 77.1774 4.90263 88.4237 12.9864 96.2555C21.0606 104.078 32.6118 108.228 46.568 108.228V103.228C33.5962 103.228 23.4034 99.386 16.4656 92.6645C9.53737 85.9523 5.58 76.1026 5.58 63.536H0.58ZM46.568 108.228C60.5247 108.228 72.0425 104.078 80.0819 96.2513C88.1293 88.4172 92.412 77.1711 92.412 63.536H87.412C87.412 76.1089 83.4867 85.9588 76.5941 92.6687C69.6935 99.3864 59.5394 103.228 46.568 103.228V108.228ZM92.412 63.536V24.944H87.412V63.536H92.412ZM89.912 27.444H104.024V22.444H89.912V27.444ZM106.524 24.944V5.07199H101.524V24.944H106.524ZM220.954 50.72V53.22H223.454V50.72H220.954ZM220.954 30.992H223.454V28.492H220.954V30.992ZM152.842 30.992H150.342V33.492H152.842V30.992ZM152.842 5.07199H155.342V2.57199H152.842V5.07199ZM131.386 5.07199V2.57199H128.886V5.07199H131.386ZM217.93 60.656H220.43V58.156H217.93V60.656ZM196.762 60.656V58.156H194.262V60.656H196.762ZM152.842 50.72V48.22H150.342V50.72H152.842ZM223.454 50.72V30.992H218.454V50.72H223.454ZM220.954 28.492H152.842V33.492H220.954V28.492ZM155.342 30.992V5.07199H150.342V30.992H155.342ZM152.842 2.57199H131.386V7.57199H152.842V2.57199ZM128.886 5.07199V63.536H133.886V5.07199H128.886ZM128.886 63.536C128.886 77.1711 133.169 88.4172 141.216 96.2513C149.256 104.078 160.774 108.228 174.73 108.228V103.228C161.759 103.228 151.605 99.3864 144.704 92.6687C137.812 85.9588 133.886 76.1089 133.886 63.536H128.886ZM174.73 108.228C188.738 108.228 200.241 103.757 208.235 95.3956C216.216 87.048 220.43 75.1036 220.43 60.656H215.43C215.43 74.1444 211.509 84.736 204.621 91.9404C197.747 99.1308 187.651 103.228 174.73 103.228V108.228ZM217.93 58.156H196.762V63.156H217.93V58.156ZM194.262 60.656C194.262 68.0604 192.227 73.7134 188.881 77.4821C185.564 81.2173 180.737 83.356 174.586 83.356V88.356C181.972 88.356 188.232 85.7427 192.62 80.8019C196.977 75.8946 199.262 68.9476 199.262 60.656H194.262ZM174.586 83.356C168.405 83.356 163.666 81.4726 160.473 78.2329C157.275 74.9899 155.342 70.0994 155.342 63.536H150.342C150.342 71.0846 152.585 77.3541 156.912 81.7431C161.242 86.1354 167.375 88.356 174.586 88.356V83.356ZM155.342 63.536V50.72H150.342V63.536H155.342ZM152.842 53.22H220.954V48.22H152.842V53.22ZM322.823 53.312V50.812H320.323V53.312H322.823ZM278.903 5.07199H281.403V2.57199H278.903V5.07199ZM243.335 5.07199V2.57199H240.835V5.07199H243.335ZM243.335 24.944H240.835V27.444H243.335V24.944ZM257.447 24.944H259.947V22.444H257.447V24.944ZM344.279 53.312H346.779V50.812H344.279V53.312ZM320.323 53.312V63.536H325.323V53.312H320.323ZM320.323 63.536C320.323 68.626 319.012 73.5868 316.058 77.2241C313.175 80.7749 308.494 83.356 301.079 83.356V88.356C309.792 88.356 315.983 85.2491 319.94 80.3759C323.826 75.5892 325.323 69.39 325.323 63.536H320.323ZM301.079 83.356C294.661 83.356 289.815 81.4601 286.575 78.2202C283.336 74.981 281.403 70.0989 281.403 63.536H276.403C276.403 71.0851 278.647 77.363 283.039 81.7558C287.431 86.1479 293.673 88.356 301.079 88.356V83.356ZM281.403 63.536V5.07199H276.403V63.536H281.403ZM278.903 2.57199H243.335V7.57199H278.903V2.57199ZM240.835 5.07199V24.944H245.835V5.07199H240.835ZM243.335 27.444H257.447V22.444H243.335V27.444ZM254.947 24.944V63.536H259.947V24.944H254.947ZM254.947 63.536C254.947 71.3071 256.616 82.4428 263.244 91.7031C269.977 101.11 281.577 108.228 300.647 108.228V103.228C282.997 103.228 272.997 96.7384 267.31 88.7929C261.518 80.7012 259.947 70.7409 259.947 63.536H254.947ZM300.647 108.228C318.797 108.228 330.48 101.803 337.554 92.7604C344.543 83.8274 346.779 72.6678 346.779 63.536H341.779C341.779 71.9722 339.695 81.9086 333.616 89.6796C327.622 97.341 317.489 103.228 300.647 103.228V108.228ZM346.779 63.536V53.312H341.779V63.536H346.779ZM344.279 50.812H322.823V55.812H344.279V50.812ZM375.718 15.728L374.135 13.7931L372.603 15.0469L373.472 16.8257L375.718 15.728ZM385.078 34.88L382.832 35.9777L384.264 38.9068L386.721 36.7644L385.078 34.88ZM370.678 44.096V41.596H368.178V44.096H370.678ZM370.678 63.68H368.178V66.18H370.678V63.68ZM377.446 72.464L379.398 70.9023L377.013 67.9201L375.234 71.2996L377.446 72.464ZM367.366 91.616L365.154 90.4516L364.253 92.1641L365.685 93.4659L367.366 91.616ZM437.206 52.016L435.939 49.8612L431.852 52.2654L436.144 54.2793L437.206 52.016ZM450.506 32.864C450.506 23.1038 446.068 15.0135 438.823 9.42802C431.623 3.87801 421.73 0.84399 410.71 0.84399V5.84399C420.859 5.84399 429.613 8.64197 435.77 13.388C441.88 18.0985 445.506 24.7682 445.506 32.864H450.506ZM410.71 0.84399C390.379 0.84399 375.839 12.3988 374.135 13.7931L377.301 17.6629C378.765 16.4652 392.162 5.84399 410.71 5.84399V0.84399ZM373.472 16.8257L382.832 35.9777L387.324 33.7823L377.964 14.6303L373.472 16.8257ZM386.721 36.7644C392.327 31.8771 400.343 25.716 410.278 25.716V20.716C398.326 20.716 389.061 28.0909 383.435 32.9956L386.721 36.7644ZM410.278 25.716C415.177 25.716 418.55 26.8597 420.634 28.4331C422.657 29.9608 423.618 31.9956 423.618 34.304H428.618C428.618 30.4204 426.916 26.9112 423.647 24.4429C420.438 22.0203 415.891 20.716 410.278 20.716V25.716ZM423.618 34.304C423.618 36.273 422.869 37.9942 421.323 39.2696C419.736 40.5788 417.084 41.596 413.014 41.596V46.596C417.873 46.596 421.772 45.3811 424.505 43.1264C427.279 40.8378 428.618 37.6629 428.618 34.304H423.618ZM413.014 41.596H370.678V46.596H413.014V41.596ZM368.178 44.096V63.68H373.178V44.096H368.178ZM370.678 66.18H413.014V61.18H370.678V66.18ZM413.014 66.18C416.196 66.18 419.856 66.5695 422.625 67.6896C425.349 68.7915 426.642 70.305 426.642 72.464H431.642C431.642 67.423 428.184 64.5445 424.5 63.0544C420.861 61.5825 416.456 61.18 413.014 61.18V66.18ZM426.642 72.464C426.642 74.6155 425.791 77.2508 423.344 79.3797C420.886 81.5171 416.569 83.356 409.27 83.356V88.356C417.38 88.356 422.998 86.3069 426.625 83.1523C430.261 79.9892 431.642 75.9285 431.642 72.464H426.642ZM409.27 83.356C390.036 83.356 380.311 72.043 379.398 70.9023L375.494 74.0257C376.885 75.765 387.897 88.356 409.27 88.356V83.356ZM375.234 71.2996L365.154 90.4516L369.579 92.7804L379.659 73.6284L375.234 71.2996ZM365.685 93.4659C367.465 95.0847 381.87 108.228 407.83 108.228V103.228C383.678 103.228 370.435 91.0273 369.048 89.7662L365.685 93.4659ZM407.83 108.228C424.86 108.228 436.44 103.987 443.804 97.775C451.184 91.5502 454.106 83.5278 454.106 76.496H449.106C449.106 82.1362 446.773 88.7298 440.58 93.953C434.373 99.189 424.064 103.228 407.83 103.228V108.228ZM454.106 76.496C454.106 68.1105 451.189 55.8143 438.268 49.7527L436.144 54.2793C446.552 59.1617 449.106 69.0415 449.106 76.496H454.106ZM438.474 54.1708C442.469 51.8208 445.512 48.8554 447.542 45.2264C449.57 41.6017 450.506 37.457 450.506 32.864H445.506C445.506 36.767 444.715 40.0383 443.178 42.7856C441.644 45.5286 439.288 47.8912 435.939 49.8612L438.474 54.1708ZM478.899 104.432H476.399V106.932H478.899V104.432ZM500.355 104.432V106.932H502.855V104.432H500.355ZM544.275 104.432H541.775V106.932H544.275V104.432ZM565.731 104.432V106.932H568.231V104.432H565.731ZM478.899 106.932H500.355V101.932H478.899V106.932ZM502.855 104.432V45.824H497.855V104.432H502.855ZM502.855 45.824C502.855 39.3384 504.785 34.4426 507.989 31.1769C511.189 27.9161 515.93 26.004 522.099 26.004V21.004C514.876 21.004 508.745 23.2679 504.42 27.6751C500.101 32.0774 497.855 38.3416 497.855 45.824H502.855ZM522.099 26.004C528.338 26.004 533.199 27.9514 536.495 31.2478C539.791 34.5433 541.775 39.4399 541.775 45.824H546.775C546.775 38.3841 544.439 32.1207 540.031 27.7122C535.623 23.3046 529.396 21.004 522.099 21.004V26.004ZM541.775 45.824V104.432H546.775V45.824H541.775ZM544.275 106.932H565.731V101.932H544.275V106.932ZM568.231 104.432V45.824H563.231V104.432H568.231ZM568.231 45.824C568.231 32.2515 563.906 21.0079 555.827 13.1606C547.755 5.32146 536.205 1.132 522.243 1.132V6.132C535.209 6.132 545.402 10.0065 552.343 16.7474C559.275 23.4801 563.231 33.3325 563.231 45.824H568.231ZM522.243 1.132C508.28 1.132 496.763 5.32189 488.727 13.1648C480.683 21.0145 476.399 32.2578 476.399 45.824H481.399C481.399 33.3262 485.322 23.4735 492.219 16.7432C499.122 10.0061 509.277 6.132 522.243 6.132V1.132ZM476.399 45.824V104.432H481.399V45.824H476.399ZM624.65 30.992H622.15V33.492H624.65V30.992ZM624.65 5.07199H627.15V2.57199H624.65V5.07199ZM603.194 5.07199V2.57199H600.694V5.07199H603.194ZM603.194 104H600.694V106.5H603.194V104ZM624.65 104V106.5H627.15V104H624.65ZM624.65 50.72V48.22H622.15V50.72H624.65ZM658.634 50.72V53.22H661.134V50.72H658.634ZM658.634 30.992H661.134V28.492H658.634V30.992ZM627.15 30.992V5.07199H622.15V30.992H627.15ZM624.65 2.57199H603.194V7.57199H624.65V2.57199ZM600.694 5.07199V104H605.694V5.07199H600.694ZM603.194 106.5H624.65V101.5H603.194V106.5ZM627.15 104V50.72H622.15V104H627.15ZM624.65 53.22H658.634V48.22H624.65V53.22ZM661.134 50.72V30.992H656.134V50.72H661.134ZM658.634 28.492H624.65V33.492H658.634V28.492Z" fill="black"/>
</svg>
