<svg width="68" height="155" viewBox="0 0 68 155" fill="none" xmlns="http://www.w3.org/2000/svg">
<path d="M27.0933 1.61231L36.411 0.4375V41.6907C36.2722 45.0957 36.9936 52.8487 40.9886 56.6204C45.9824 61.3351 57.2185 64.8711 57.2185 73.5146V152.518L8.73949 151.529C4.92995 151.451 1.88232 148.34 1.88232 144.53V73.5146C1.88232 65.5611 4.10432 63.5632 7.52888 60.2909C10.1845 57.7534 14.2619 54.7176 17.3162 52.0093C19.4383 50.1277 21.8757 44.7959 22.9628 44.1042L24.4685 30.176L19.5528 28.8824C18.2348 28.5356 17.3162 27.344 17.3162 25.9812V14.7306C17.3162 13.0737 18.6594 11.7306 20.3162 11.7306H24.4685V4.58875C24.4685 3.077 25.5934 1.80142 27.0933 1.61231Z" fill="#D14B4B" fill-opacity="0.5"/>
<rect x="20.3276" y="13.9902" width="27.1034" height="13.5517" fill="#E2C4B7"/>
<path d="M59.7897 57.9646L49.4812 50.2477C48.5227 49.5272 47.7447 48.5948 47.2081 47.5236C46.6715 46.4525 46.391 45.2717 46.3886 44.0741V31.2125H48.9657C49.6492 31.2125 50.3048 30.9415 50.7881 30.4591C51.2714 29.9767 51.5429 29.3224 51.5429 28.6402V13.2063C51.5429 12.5241 51.2714 11.8698 50.7881 11.3874C50.3048 10.905 49.6492 10.634 48.9657 10.634L43.8115 10.634V2.91704C43.8115 2.23482 43.5399 1.58054 43.0566 1.09814C42.5733 0.615738 41.9178 0.344727 41.2343 0.344727L25.7714 0.344727C25.0879 0.344727 24.4324 0.615738 23.9491 1.09814C23.4658 1.58054 23.1943 2.23482 23.1943 2.91704V10.634H18.04C17.3565 10.634 16.701 10.905 16.2177 11.3874C15.7344 11.8698 15.4629 12.5241 15.4629 13.2063L15.4629 28.6402C15.4629 29.3224 15.7344 29.9767 16.2177 30.4591C16.701 30.9415 17.3565 31.2125 18.04 31.2125H20.6172L20.6172 44.0741C20.6144 45.2717 20.3337 46.4523 19.7971 47.5234C19.2606 48.5945 18.4827 49.527 17.5246 50.2477L7.216 57.9646C4.98037 59.6464 3.16542 61.8222 1.91346 64.3215C0.661501 66.8207 0.00656394 69.5754 0 72.3696L0 146.967C0 149.014 0.814558 150.976 2.26448 152.424C3.71441 153.871 5.68093 154.684 7.73143 154.684H59.2743C61.3248 154.684 63.2913 153.871 64.7413 152.424C66.1912 150.976 67.0058 149.014 67.0058 146.967L67.0058 72.3696C66.9992 69.5754 66.3443 66.8207 65.0923 64.3215C63.8403 61.8222 62.0254 59.6464 59.7897 57.9646ZM28.3486 5.48936H38.6572V10.634H28.3486V5.48936ZM20.6172 15.7786H46.3886V26.0679L20.6172 26.0679V15.7786ZM10.3086 62.0804L20.6172 54.3634C22.214 53.1621 23.5103 51.6079 24.4046 49.8228C25.2988 48.0376 25.7667 46.07 25.7714 44.0741L25.7714 31.2125L41.2343 31.2125V44.0741C41.2387 46.0701 41.7064 48.0378 42.6006 49.823C43.4949 51.6082 44.7915 53.1624 46.3886 54.3634L56.6972 62.0804C58.2938 63.2818 59.5901 64.836 60.4843 66.6211C61.3786 68.4062 61.8465 70.3738 61.8515 72.3696V82.6589H5.15429V72.3696C5.15926 70.3738 5.62719 68.4062 6.52143 66.6211C7.41567 64.836 8.71191 63.2818 10.3086 62.0804ZM61.8515 87.8035V123.816H5.15429L5.15429 87.8035H61.8515ZM59.2743 149.539H7.73143C7.04793 149.539 6.39242 149.268 5.90911 148.786C5.42581 148.303 5.15429 147.649 5.15429 146.967L5.15429 128.961H61.8515V146.967C61.8515 147.649 61.5799 148.303 61.0966 148.786C60.6133 149.268 59.9578 149.539 59.2743 149.539Z" fill="black"/>
</svg>
