<svg width="693" height="284" viewBox="0 0 693 284" fill="none" xmlns="http://www.w3.org/2000/svg">
<path d="M251.158 2.09345L261.271 0.818359V44.8189C261.123 48.4507 261.892 56.72 266.154 60.7429C271.48 65.7716 283.464 69.543 283.464 78.7622V163.027L231.3 161.962C227.491 161.885 224.443 158.774 224.443 154.964V78.7622C224.443 70.279 226.813 68.1481 230.465 64.6579C233.298 61.9514 237.647 58.7134 240.905 55.8247C243.168 53.8178 245.768 48.1309 246.927 47.3931L248.533 32.5374L243.141 31.1184C241.823 30.7716 240.905 29.58 240.905 28.2172V15.8636C240.905 14.2067 242.248 12.8636 243.905 12.8636H248.533V5.06988C248.533 3.55813 249.658 2.28256 251.158 2.09345Z" fill="#D14B4B" fill-opacity="0.5"/>
<rect x="244.117" y="15.2725" width="28.9085" height="14.4542" fill="#E2C4B7"/>
<path d="M286.207 62.176L275.212 53.9451C274.19 53.1767 273.36 52.1821 272.788 51.0396C272.215 49.8971 271.916 48.6378 271.913 47.3604V33.6423H274.662C275.391 33.6423 276.09 33.3532 276.606 32.8387C277.121 32.3242 277.411 31.6263 277.411 30.8986V14.4369C277.411 13.7092 277.121 13.0114 276.606 12.4968C276.09 11.9823 275.391 11.6933 274.662 11.6933L269.165 11.6933V3.46238C269.165 2.73472 268.875 2.03687 268.36 1.52234C267.844 1.00781 267.145 0.71875 266.416 0.71875L249.923 0.71875C249.194 0.71875 248.495 1.00781 247.98 1.52234C247.464 2.03687 247.175 2.73472 247.175 3.46238V11.6933H241.677C240.948 11.6933 240.249 11.9823 239.733 12.4968C239.218 13.0114 238.928 13.7092 238.928 14.4369V30.8986C238.928 31.6263 239.218 32.3242 239.733 32.8387C240.249 33.3532 240.948 33.6423 241.677 33.6423H244.426V47.3604C244.423 48.6377 244.123 49.8969 243.551 51.0394C242.979 52.1818 242.149 53.1764 241.127 53.9451L230.132 62.176C227.748 63.9698 225.812 66.2905 224.476 68.9561C223.141 71.6218 222.443 74.56 222.436 77.5403V157.105C222.436 159.288 223.304 161.382 224.851 162.926C226.397 164.469 228.495 165.336 230.682 165.336H285.657C287.844 165.336 289.942 164.469 291.488 162.926C293.035 161.382 293.904 159.288 293.904 157.105V77.5403C293.897 74.56 293.198 71.6218 291.863 68.9561C290.527 66.2905 288.592 63.9698 286.207 62.176ZM252.672 6.206L263.667 6.206V11.6933H252.672V6.206ZM244.426 17.1805L271.913 17.1805V28.155L244.426 28.155V17.1805ZM233.431 66.5658L244.426 58.3349C246.129 57.0536 247.512 55.3959 248.465 53.4919C249.419 51.5878 249.918 49.4892 249.923 47.3604V33.6423H266.416V47.3604C266.421 49.4893 266.919 51.5881 267.873 53.4922C268.827 55.3963 270.21 57.0539 271.913 58.3349L282.909 66.5658C284.612 67.8473 285.994 69.505 286.948 71.409C287.902 73.313 288.401 75.4116 288.406 77.5403V88.5148H227.933V77.5403C227.938 75.4116 228.437 73.313 229.391 71.409C230.345 69.505 231.728 67.8473 233.431 66.5658ZM288.406 94.0021V132.413H227.933V94.0021H288.406ZM285.657 159.849H230.682C229.953 159.849 229.254 159.56 228.738 159.046C228.223 158.531 227.933 157.833 227.933 157.105V137.9H288.406V157.105C288.406 157.833 288.117 158.531 287.601 159.046C287.086 159.56 286.386 159.849 285.657 159.849Z" fill="black"/>
<path d="M351.134 4.40302L361.247 3.12793V47.1285C361.099 50.7603 361.868 59.0296 366.129 63.0525C371.456 68.0811 383.44 71.8526 383.44 81.0718V165.337L331.276 164.272C327.466 164.194 324.418 161.084 324.418 157.273V81.0718C324.418 72.5885 326.788 70.4576 330.441 66.9674C333.274 64.2609 337.622 61.023 340.88 58.1343C343.144 56.1274 345.743 50.4404 346.903 49.7027L348.509 34.8469L343.117 33.428C341.799 33.0811 340.88 31.8895 340.88 30.5267V18.1731C340.88 16.5163 342.223 15.1731 343.88 15.1731H348.509V7.37945C348.509 5.8677 349.634 4.59213 351.134 4.40302Z" fill="#98C2A4"/>
<rect x="343.668" y="15.3721" width="28.9085" height="14.4542" fill="#E2C4B7"/>
<path d="M386.584 62.2756L375.589 54.0447C374.567 53.2763 373.737 52.2818 373.164 51.1393C372.592 49.9967 372.293 48.7374 372.29 47.46V33.7419H375.039C375.768 33.7419 376.467 33.4528 376.983 32.9383C377.498 32.4238 377.788 31.7259 377.788 30.9983V14.5365C377.788 13.8088 377.498 13.111 376.983 12.5965C376.467 12.0819 375.768 11.7929 375.039 11.7929L369.542 11.7929V3.56199C369.542 2.83433 369.252 2.13648 368.737 1.62195C368.221 1.10742 367.522 0.818359 366.793 0.818359L350.3 0.818359C349.571 0.818359 348.872 1.10742 348.357 1.62195C347.841 2.13648 347.551 2.83433 347.551 3.56199V11.7929H342.054C341.325 11.7929 340.626 12.0819 340.11 12.5965C339.595 13.111 339.305 13.8088 339.305 14.5365V30.9983C339.305 31.7259 339.595 32.4238 340.11 32.9383C340.626 33.4528 341.325 33.7419 342.054 33.7419H344.803V47.46C344.8 48.7373 344.5 49.9965 343.928 51.139C343.356 52.2814 342.526 53.276 341.504 54.0447L330.509 62.2756C328.125 64.0694 326.189 66.3901 324.853 69.0558C323.518 71.7214 322.82 74.6596 322.812 77.6399V157.205C322.812 159.388 323.681 161.482 325.228 163.025C326.774 164.569 328.872 165.436 331.059 165.436H386.034C388.221 165.436 390.319 164.569 391.865 163.025C393.412 161.482 394.281 159.388 394.281 157.205V77.6399C394.274 74.6596 393.575 71.7214 392.24 69.0558C390.904 66.3901 388.969 64.0694 386.584 62.2756ZM353.049 6.30561L364.044 6.30561V11.7929H353.049V6.30561ZM344.803 17.2801L372.29 17.2801V28.2546L344.803 28.2546V17.2801ZM333.808 66.6654L344.803 58.4345C346.506 57.1532 347.889 55.4955 348.842 53.5915C349.796 51.6875 350.295 49.5888 350.3 47.46V33.7419H366.793V47.46C366.798 49.5889 367.296 51.6877 368.25 53.5918C369.204 55.4959 370.587 57.1535 372.29 58.4345L383.286 66.6654C384.989 67.9469 386.371 69.6046 387.325 71.5086C388.279 73.4126 388.778 75.5112 388.783 77.6399V88.6144H328.31V77.6399C328.315 75.5112 328.814 73.4126 329.768 71.5086C330.722 69.6046 332.105 67.9469 333.808 66.6654ZM388.783 94.1017V132.512H328.31V94.1017H388.783ZM386.034 159.949H331.059C330.33 159.949 329.631 159.66 329.115 159.145C328.6 158.631 328.31 157.933 328.31 157.205V138H388.783V157.205C388.783 157.933 388.493 158.631 387.978 159.145C387.462 159.66 386.763 159.949 386.034 159.949Z" fill="black"/>
<path d="M451.51 1.99384L461.623 0.71875V44.7193C461.475 48.3511 462.244 56.6204 466.506 60.6433C471.832 65.672 483.816 69.4434 483.816 78.6626V162.927L431.652 161.863C427.843 161.785 424.795 158.675 424.795 154.864V78.6626C424.795 70.1794 427.165 68.0484 430.818 64.5583C433.65 61.8518 437.999 58.6138 441.257 55.7251C443.52 53.7182 446.12 48.0313 447.279 47.2935L448.885 32.4378L443.493 31.0188C442.175 30.672 441.257 29.4804 441.257 28.1176V15.7639C441.257 14.1071 442.6 12.7639 444.257 12.7639H448.885V4.97027C448.885 3.45852 450.01 2.18295 451.51 1.99384Z" fill="#A0DBE8"/>
<rect x="444.044" y="15.3721" width="28.9085" height="14.4542" fill="#E2C4B7"/>
<path d="M486.961 62.2756L475.965 54.0447C474.943 53.2763 474.113 52.2818 473.541 51.1393C472.969 49.9967 472.669 48.7374 472.667 47.46V33.7419H475.416C476.145 33.7419 476.844 33.4528 477.359 32.9383C477.875 32.4238 478.164 31.7259 478.164 30.9983V14.5365C478.164 13.8088 477.875 13.111 477.359 12.5965C476.844 12.0819 476.145 11.7929 475.416 11.7929L469.918 11.7929V3.56199C469.918 2.83433 469.629 2.13648 469.113 1.62195C468.598 1.10742 467.898 0.818359 467.169 0.818359L450.677 0.818359C449.948 0.818359 449.249 1.10742 448.733 1.62195C448.218 2.13648 447.928 2.83433 447.928 3.56199V11.7929H442.43C441.701 11.7929 441.002 12.0819 440.487 12.5965C439.971 13.111 439.682 13.8088 439.682 14.5365V30.9983C439.682 31.7259 439.971 32.4238 440.487 32.9383C441.002 33.4528 441.701 33.7419 442.43 33.7419H445.179V47.46C445.176 48.7373 444.877 49.9965 444.305 51.139C443.732 52.2814 442.903 53.276 441.881 54.0447L430.886 62.2756C428.501 64.0694 426.565 66.3901 425.23 69.0558C423.895 71.7214 423.196 74.6596 423.189 77.6399V157.205C423.189 159.388 424.058 161.482 425.604 163.025C427.151 164.569 429.248 165.436 431.435 165.436H486.411C488.598 165.436 490.695 164.569 492.242 163.025C493.788 161.482 494.657 159.388 494.657 157.205V77.6399C494.65 74.6596 493.952 71.7214 492.616 69.0558C491.281 66.3901 489.345 64.0694 486.961 62.2756ZM453.425 6.30561L464.421 6.30561V11.7929H453.425V6.30561ZM445.179 17.2801L472.667 17.2801V28.2546L445.179 28.2546V17.2801ZM434.184 66.6654L445.179 58.4345C446.882 57.1532 448.265 55.4955 449.219 53.5915C450.173 51.6875 450.672 49.5888 450.677 47.46V33.7419H467.169V47.46C467.174 49.5889 467.673 51.6877 468.627 53.5918C469.581 55.4959 470.963 57.1535 472.667 58.4345L483.662 66.6654C485.365 67.9469 486.748 69.6046 487.701 71.5086C488.655 73.4126 489.154 75.5112 489.16 77.6399V88.6144H428.687V77.6399C428.692 75.5112 429.191 73.4126 430.145 71.5086C431.098 69.6046 432.481 67.9469 434.184 66.6654ZM489.16 94.1017V132.512H428.687V94.1017H489.16ZM486.411 159.949H431.435C430.706 159.949 430.007 159.66 429.492 159.145C428.976 158.631 428.687 157.933 428.687 157.205V138H489.16V157.205C489.16 157.933 488.87 158.631 488.354 159.145C487.839 159.66 487.14 159.949 486.411 159.949Z" fill="black"/>
<path d="M551.886 1.99384L562 0.71875V44.7193C561.852 48.3511 562.621 56.6204 566.882 60.6433C572.208 65.672 584.193 69.4434 584.193 78.6626V162.927L532.029 161.863C528.219 161.785 525.171 158.675 525.171 154.864V78.6626C525.171 70.1794 527.541 68.0484 531.194 64.5583C534.026 61.8518 538.375 58.6138 541.633 55.7251C543.897 53.7182 546.496 48.0313 547.656 47.2935L549.262 32.4378L543.87 31.0188C542.552 30.672 541.633 29.4804 541.633 28.1176V15.7639C541.633 14.1071 542.976 12.7639 544.633 12.7639H549.262V4.97027C549.262 3.45852 550.387 2.18295 551.886 1.99384Z" fill="#E9BD8A"/>
<rect x="544.421" y="15.3721" width="28.9085" height="14.4542" fill="#E2C4B7"/>
<path d="M587.337 62.2756L576.342 54.0447C575.32 53.2763 574.49 52.2818 573.917 51.1393C573.345 49.9967 573.046 48.7374 573.043 47.46V33.7419H575.792C576.521 33.7419 577.22 33.4528 577.736 32.9383C578.251 32.4238 578.541 31.7259 578.541 30.9983V14.5365C578.541 13.8088 578.251 13.111 577.736 12.5965C577.22 12.0819 576.521 11.7929 575.792 11.7929L570.295 11.7929V3.56199C570.295 2.83433 570.005 2.13648 569.489 1.62195C568.974 1.10742 568.275 0.818359 567.546 0.818359L551.053 0.818359C550.324 0.818359 549.625 1.10742 549.109 1.62195C548.594 2.13648 548.304 2.83433 548.304 3.56199V11.7929H542.807C542.078 11.7929 541.379 12.0819 540.863 12.5965C540.348 13.111 540.058 13.8088 540.058 14.5365V30.9983C540.058 31.7259 540.348 32.4238 540.863 32.9383C541.379 33.4528 542.078 33.7419 542.807 33.7419H545.556V47.46C545.553 48.7373 545.253 49.9965 544.681 51.139C544.109 52.2814 543.279 53.276 542.257 54.0447L531.262 62.2756C528.877 64.0694 526.942 66.3901 525.606 69.0558C524.271 71.7214 523.572 74.6596 523.565 77.6399V157.205C523.565 159.388 524.434 161.482 525.981 163.025C527.527 164.569 529.625 165.436 531.812 165.436H586.787C588.974 165.436 591.072 164.569 592.618 163.025C594.165 161.482 595.034 159.388 595.034 157.205V77.6399C595.027 74.6596 594.328 71.7214 592.993 69.0558C591.657 66.3901 589.722 64.0694 587.337 62.2756ZM553.802 6.30561L564.797 6.30561V11.7929H553.802V6.30561ZM545.556 17.2801L573.043 17.2801V28.2546L545.556 28.2546V17.2801ZM534.561 66.6654L545.556 58.4345C547.259 57.1532 548.641 55.4955 549.595 53.5915C550.549 51.6875 551.048 49.5888 551.053 47.46V33.7419H567.546V47.46C567.55 49.5889 568.049 51.6877 569.003 53.5918C569.957 55.4959 571.34 57.1535 573.043 58.4345L584.038 66.6654C585.741 67.9469 587.124 69.6046 588.078 71.5086C589.032 73.4126 589.531 75.5112 589.536 77.6399V88.6144H529.063V77.6399C529.068 75.5112 529.567 73.4126 530.521 71.5086C531.475 69.6046 532.858 67.9469 534.561 66.6654ZM589.536 94.1017V132.512H529.063V94.1017H589.536ZM586.787 159.949H531.812C531.083 159.949 530.384 159.66 529.868 159.145C529.353 158.631 529.063 157.933 529.063 157.205V138H589.536V157.205C589.536 157.933 589.246 158.631 588.731 159.145C588.215 159.66 587.516 159.949 586.787 159.949Z" fill="black"/>
<rect x="5" y="182.045" width="683" height="80.7404" rx="40.3702" stroke="black" stroke-width="10"/>
<rect x="19.4541" y="197.303" width="653.289" height="50.226" rx="25.113" stroke="black" stroke-width="10"/>
<rect x="40.1357" y="169" width="43.3928" height="11.2723" fill="#C4C4C4" stroke="black" stroke-width="8"/>
<rect x="97.1494" y="169" width="43.3928" height="11.2723" fill="#C4C4C4" stroke="black" stroke-width="8"/>
<rect x="154.164" y="169" width="43.3928" height="11.2723" fill="#C4C4C4" stroke="black" stroke-width="8"/>
<rect x="211.177" y="169" width="43.3928" height="11.2723" fill="#C4C4C4" stroke="black" stroke-width="8"/>
<rect x="268.191" y="169" width="43.3928" height="11.2723" fill="#C4C4C4" stroke="black" stroke-width="8"/>
<rect x="325.205" y="169" width="43.3928" height="11.2723" fill="#C4C4C4" stroke="black" stroke-width="8"/>
<rect x="382.219" y="169" width="43.3928" height="11.2723" fill="#C4C4C4" stroke="black" stroke-width="8"/>
<rect x="439.233" y="169" width="43.3928" height="11.2723" fill="#C4C4C4" stroke="black" stroke-width="8"/>
<rect x="496.247" y="169" width="43.3928" height="11.2723" fill="#C4C4C4" stroke="black" stroke-width="8"/>
<rect x="553.261" y="169" width="43.3928" height="11.2723" fill="#C4C4C4" stroke="black" stroke-width="8"/>
<rect x="610.274" y="169" width="43.3928" height="11.2723" fill="#C4C4C4" stroke="black" stroke-width="8"/>
<rect x="40.1357" y="267.771" width="43.3928" height="11.2723" fill="#C4C4C4" stroke="black" stroke-width="8"/>
<rect x="97.1494" y="267.771" width="43.3928" height="11.2723" fill="#C4C4C4" stroke="black" stroke-width="8"/>
<rect x="154.164" y="267.771" width="43.3928" height="11.2723" fill="#C4C4C4" stroke="black" stroke-width="8"/>
<rect x="211.177" y="267.771" width="43.3928" height="11.2723" fill="#C4C4C4" stroke="black" stroke-width="8"/>
<rect x="268.191" y="267.771" width="43.3928" height="11.2723" fill="#C4C4C4" stroke="black" stroke-width="8"/>
<rect x="325.205" y="267.771" width="43.3928" height="11.2723" fill="#C4C4C4" stroke="black" stroke-width="8"/>
<rect x="382.219" y="267.771" width="43.3928" height="11.2723" fill="#C4C4C4" stroke="black" stroke-width="8"/>
<rect x="439.233" y="267.771" width="43.3928" height="11.2723" fill="#C4C4C4" stroke="black" stroke-width="8"/>
<rect x="496.247" y="267.771" width="43.3928" height="11.2723" fill="#C4C4C4" stroke="black" stroke-width="8"/>
<rect x="553.261" y="267.771" width="43.3928" height="11.2723" fill="#C4C4C4" stroke="black" stroke-width="8"/>
<rect x="610.274" y="267.771" width="43.3928" height="11.2723" fill="#C4C4C4" stroke="black" stroke-width="8"/>
<circle cx="45.7718" cy="222.014" r="12.6663" fill="#C4C4C4" stroke="black" stroke-width="10"/>
<circle cx="644.819" cy="222.014" r="12.6663" fill="#C4C4C4" stroke="black" stroke-width="10"/>
</svg>
