<svg width="72" height="165" viewBox="0 0 72 165" fill="none" xmlns="http://www.w3.org/2000/svg">
<path d="M28.7229 1.3747L38.836 0.0996094V44.1002C38.688 47.732 39.4574 56.0013 43.7185 60.0242C49.0449 65.0528 61.0293 68.8243 61.0293 78.0434V162.308L8.86499 161.244C5.05545 161.166 2.00781 158.055 2.00781 154.245V78.0434C2.00781 69.5602 4.37779 67.4293 8.03041 63.9391C10.8629 61.2326 15.2119 57.9946 18.4696 55.106C20.7329 53.099 23.3327 47.4121 24.4922 46.6743L26.0982 31.8186L20.7061 30.3996C19.3882 30.0528 18.4696 28.8612 18.4696 27.4984V15.1448C18.4696 13.4879 19.8127 12.1448 21.4696 12.1448H26.0982V4.35113C26.0982 2.83938 27.223 1.56381 28.7229 1.3747Z" fill="#250C4E" fill-opacity="0.5"/>
<rect x="21.6816" y="14.5537" width="28.9085" height="14.4542" fill="#E2C4B7"/>
<path d="M63.7716 61.4572L52.7765 53.2264C51.7542 52.4579 50.9243 51.4634 50.352 50.3209C49.7797 49.1784 49.4805 47.919 49.4779 46.6417V32.9235H52.2267C52.9557 32.9235 53.6549 32.6345 54.1704 32.1199C54.6859 31.6054 54.9755 30.9076 54.9755 30.1799V13.7181C54.9755 12.9905 54.6859 12.2926 54.1704 11.7781C53.6549 11.2636 52.9557 10.9745 52.2267 10.9745L46.7292 10.9745V2.74363C46.7292 2.01597 46.4396 1.31812 45.9241 0.80359C45.4086 0.28906 44.7094 0 43.9804 0L27.4877 0C26.7587 0 26.0596 0.28906 25.5441 0.80359C25.0286 1.31812 24.739 2.01597 24.739 2.74363V10.9745H19.2414C18.5124 10.9745 17.8132 11.2636 17.2977 11.7781C16.7822 12.2926 16.4926 12.9905 16.4926 13.7181V30.1799C16.4926 30.9076 16.7822 31.6054 17.2977 32.1199C17.8132 32.6345 18.5124 32.9235 19.2414 32.9235H21.9902V46.6417C21.9872 47.9189 21.6879 49.1782 21.1156 50.3206C20.5433 51.463 19.7136 52.4576 18.6917 53.2264L7.69657 61.4572C5.31205 63.251 3.37623 65.5717 2.04089 68.2374C0.705555 70.9031 0.00700108 73.8412 0 76.8216L0 156.387C0 158.57 0.868806 160.663 2.41529 162.207C3.96178 163.75 6.05926 164.618 8.24632 164.618H63.2218C65.4089 164.618 67.5063 163.75 69.0528 162.207C70.5993 160.663 71.4681 158.57 71.4681 156.387L71.4681 76.8216C71.4611 73.8412 70.7626 70.9031 69.4272 68.2374C68.0919 65.5717 66.1561 63.251 63.7716 61.4572ZM30.2365 5.48725L41.2316 5.48725V10.9745H30.2365V5.48725ZM21.9902 16.4618L49.4779 16.4618V27.4363L21.9902 27.4363V16.4618ZM10.9951 65.847L21.9902 57.6162C23.6934 56.3348 25.076 54.6772 26.0298 52.7731C26.9836 50.8691 27.4827 48.7704 27.4877 46.6417V32.9235H43.9804V46.6417C43.9851 48.7705 44.4839 50.8693 45.4377 52.7734C46.3916 54.6775 47.7745 56.3351 49.4779 57.6162L60.473 65.847C62.176 67.1285 63.5586 68.7862 64.5124 70.6902C65.4662 72.5942 65.9653 74.6928 65.9706 76.8216V87.7961H5.49755V76.8216C5.50285 74.6928 6.00195 72.5942 6.95574 70.6902C7.90953 68.7862 9.29209 67.1285 10.9951 65.847ZM65.9706 93.2833L65.9706 131.694H5.49755L5.49755 93.2833H65.9706ZM63.2218 159.13H8.24632C7.5173 159.13 6.81814 158.841 6.30264 158.327C5.78715 157.812 5.49755 157.114 5.49755 156.387L5.49755 137.181H65.9706V156.387C65.9706 157.114 65.681 157.812 65.1655 158.327C64.65 158.841 63.9508 159.13 63.2218 159.13Z" fill="black"/>
</svg>
