<svg height="512" viewBox="0 0 64 64" width="512" xmlns="http://www.w3.org/2000/svg"><path d="m42.2 24.4-4-3a3.012 3.012 0 0 1 -1.2-2.4v-5h1a1 1 0 0 0 1-1v-6a1 1 0 0 0 -1-1h-2v-3a1 1 0 0 0 -1-1h-6a1 1 0 0 0 -1 1v3h-2a1 1 0 0 0 -1 1v6a1 1 0 0 0 1 1h1v5a3.014 3.014 0 0 1 -1.2 2.4l-4 3a7.033 7.033 0 0 0 -2.8 5.6v29a3 3 0 0 0 3 3h20a3 3 0 0 0 3-3v-29a7.033 7.033 0 0 0 -2.8-5.6zm-12.2-20.4h4v2h-4zm-3 4h10v4h-10zm-4 18 4-3a5.024 5.024 0 0 0 2-4v-5h6v5a5.022 5.022 0 0 0 2 4l4 3a5.025 5.025 0 0 1 2 4v4h-22v-4a5.025 5.025 0 0 1 2-4zm20 10v14h-22v-14zm-1 24h-20a1 1 0 0 1 -1-1v-7h22v7a1 1 0 0 1 -1 1z"/></svg>